<?xml version="1.0" standalone="no"?>
<!DOCTYPE svg PUBLIC "-//W3C//DTD SVG 20010904//EN"
 "http://www.w3.org/TR/2001/REC-SVG-20010904/DTD/svg10.dtd">
<svg version="1.0" xmlns="http://www.w3.org/2000/svg"
 width="424.000000pt" height="424.000000pt" viewBox="0 0 424.000000 424.000000"
 preserveAspectRatio="xMidYMid meet">
<metadata>
Created by potrace 1.14, written by Peter Selinger 2001-2017
</metadata>
<g transform="translate(0.000000,424.000000) scale(0.100000,-0.100000)"
fill="#000000" stroke="none">
<path d="M1950 4139 c-74 -44 -141 -84 -149 -88 -11 -6 14 -50 108 -188 115
-169 122 -181 110 -206 -12 -26 -15 -22 -142 164 -94 138 -135 189 -146 186
-9 -3 -335 -191 -726 -420 l-710 -415 -3 -95 -3 -95 73 -88 c159 -195 802
-980 815 -996 12 -14 12 -20 1 -41 -13 -24 -23 -13 -448 506 l-435 531 -3
-914 c-2 -723 1 -917 10 -926 16 -14 373 -223 388 -226 6 -2 116 221 244 495
230 490 235 499 250 474 16 -24 11 -37 -209 -507 -125 -265 -224 -487 -222
-494 5 -11 597 -360 602 -354 1 2 82 150 179 329 97 179 183 335 190 345 14
18 15 18 26 -7 10 -23 -4 -53 -170 -358 -100 -183 -178 -337 -173 -341 28 -27
684 -400 703 -400 26 0 370 196 370 211 0 5 -154 197 -342 427 -188 229 -346
422 -351 429 -10 13 -1 53 12 53 5 0 167 -193 360 -429 194 -236 359 -435 367
-441 11 -10 73 22 320 166 178 103 313 188 323 203 10 14 102 182 206 374 166
308 189 345 201 330 7 -10 14 -23 14 -29 0 -6 -77 -151 -170 -322 -93 -172
-170 -314 -170 -316 0 -8 559 319 560 328 0 4 -47 76 -104 160 -98 143 -102
152 -88 174 14 21 17 17 119 -131 58 -83 110 -158 117 -164 9 -10 18 -8 44 7
l32 20 0 422 c0 248 -4 418 -9 413 -5 -6 -69 -120 -141 -255 -73 -135 -138
-251 -145 -258 -9 -10 -14 -8 -24 11 -11 21 1 46 129 282 78 143 153 281 166
307 l24 48 -2 571 -3 571 -384 224 c-211 123 -387 224 -391 224 -4 0 -112
-192 -240 -427 -128 -236 -234 -429 -235 -431 -1 -1 -9 8 -17 21 -15 22 -6 40
214 446 126 232 228 424 226 426 -25 21 -795 462 -800 457 -3 -4 -55 -112
-114 -240 -107 -230 -109 -233 -126 -212 -21 26 -30 1 101 278 50 107 91 198
91 202 0 15 -117 80 -141 79 -13 0 -85 -36 -159 -80z m410 -932 c257 -376 272
-400 261 -424 -7 -15 -16 -22 -20 -17 -5 5 -130 188 -280 406 -256 375 -270
398 -259 423 6 14 15 22 18 18 4 -5 130 -187 280 -406z m-332 382 c12 -19 -25
-102 -389 -880 -222 -473 -407 -858 -413 -856 -36 12 -23 43 375 895 222 474
406 862 409 862 3 0 11 -9 18 -21z m1154 -1581 c373 -545 408 -599 396 -617
-7 -12 -15 -21 -18 -21 -3 1 -87 121 -187 268 -100 147 -293 429 -429 627
-136 198 -258 376 -271 396 -21 31 -22 40 -12 62 12 26 12 26 62 -46 27 -40
234 -341 459 -669z m-546 683 c-2 -3 -189 -348 -416 -766 -228 -418 -415 -762
-417 -764 -2 -3 -11 3 -20 12 -22 21 -42 -19 292 592 146 270 326 599 398 732
129 238 132 243 149 222 10 -12 16 -24 14 -28z m-1138 -1183 c139 -169 252
-314 252 -322 0 -7 -6 -18 -13 -24 -9 -8 -20 -1 -43 26 -17 20 -132 162 -257
314 -217 265 -227 278 -215 303 6 14 14 22 18 18 4 -5 120 -146 258 -315z"/>
</g>
</svg>
